# xmcd CD database file
#
# Track frame offsets:
#	182
#	10175
#	20310
#	31872
#	44830
#	53352
#	62842
#	73957
#	82897
#	95237
#	104632
#	118722
#
# Disc length: 1726 seconds
#
# Revision: 0
# Processed by: cddbd v1.5.1PL0 Copyright (c) Steve Scherf et al.
# Submitted via: CDex 1.51
#
DISCID=a006bc0c
DTITLE=Hank Edwards - The Real Thing
DYEAR=1900
DGENRE=Country
TTITLE0=Go Back You Fool
TTITLE1=I'm A Drifter
TTITLE2=How Do You Talk To A Baby
TTITLE3=Did You Miss Me Too ?
TTITLE4=Old Time Religion
TTITLE5=Seven Lonely Days
TTITLE6=Blue Eyes Crying In The Rain
TTITLE7=Poor Old Broken Heart Of Mine
TTITLE8=Tomorrow Never Comes
TTITLE9=Watchdog
TTITLE10=I Ain't Got Nothing But Time
TTITLE11=Keep In The Middle Of The Road
EXTD=
EXTT0=
EXTT1=
EXTT2=
EXTT3=
EXTT4=
EXTT5=
EXTT6=
EXTT7=
EXTT8=
EXTT9=
EXTT10=
EXTT11=
PLAYORDER=
